<svg xmlns="http://www.w3.org/2000/svg" viewBox="0 0 79.72 115.26"><defs><style>.cls-1{fill:#fff;}</style></defs><title>Arte</title><g id="Capa_2" data-name="Capa 2"><g id="Layer_2" data-name="Layer 2"><path class="cls-1" d="M23.13,115h-1.5l5.19-12.42h1.34L33.3,115H31.79l-1.44-3.49h-5.8Zm4.31-10.86L25,110.37h5Z"/><path class="cls-1" d="M36,106h1.18v1.47A3.08,3.08,0,0,1,40,105.72V107h-.12c-1.74,0-2.71,1.09-2.71,3.14V115H36Z"/><path class="cls-1" d="M43.88,107H42.1v-1h1.78v-3.39h1.23V106h2v1h-2v8H43.88Z"/><path class="cls-1" d="M49.84,110.84a3.44,3.44,0,0,0,3.52,3.34,3.33,3.33,0,0,0,3.11-1.86h1.29a4.79,4.79,0,0,1-1.83,2.2,4.77,4.77,0,1,1-2.58-8.8,4.73,4.73,0,0,1,3.3,1.28,4.68,4.68,0,0,1,1.41,3.84Zm7-1a3.52,3.52,0,0,0-7,0Z"/><path class="cls-1" d="M38.14,88.64c-1.74-.4-3.5-.72-5.19-1.24a17.31,17.31,0,0,1-6-3.35,1.71,1.71,0,0,1-.59-2.13,15.34,15.34,0,0,1,3.79-5.31c1.51-1.5,3.1-2.93,4.73-4.46-.35-.44-.75-.92-1.12-1.42A30.31,30.31,0,0,1,29.84,63a1.38,1.38,0,0,0-1.17-1c-7.38-1.6-12.88-5.57-15.73-12.75a28.13,28.13,0,0,1-.89-3.4H7.84c-1.43,0-1.9-.47-2.08-1.87-.26-2-.52-4-.83-6a1.21,1.21,0,0,0-.59-.76A1.56,1.56,0,0,1,4,34.55a1.13,1.13,0,0,0,.34-.84c-.14-1.46-.34-2.92-.57-4.37a1,1,0,0,0-.52-.65A1.53,1.53,0,0,1,3,26a1,1,0,0,0,.29-.69c-.13-1.26-.32-2.52-.48-3.77-.09-.68-.18-1.24-1-1.6a1.35,1.35,0,0,1-.12-2.27,1,1,0,0,0,.4-1.19c-.14-1-.3-2.11-.44-3.17-.11-.77-.08-1.49-1-1.93s-.74-1.59,0-2.3a1.25,1.25,0,0,0,.36-.9C.68,6.13.39,4.07.12,2A1.59,1.59,0,0,1,1.85,0,22.36,22.36,0,0,1,15.36,4.33a20,20,0,0,1,7.36,10.83c1.91,6.91,3.6,13.89,5.37,20.84,1,4,2,8,3.06,12.08.79-.86,1.55-1.62,2.23-2.44.15-.18.09-.55.09-.84.05-2.73,0-5.48.17-8.21a6.29,6.29,0,0,1,12.46,0c.22,2.7.14,5.42.14,8.13a1.87,1.87,0,0,0,.63,1.51c.58.54,1.08,1.17,1.71,1.87.46-1.8.89-3.52,1.33-5.24,2.3-9,4.46-18.12,6.94-27.12C59.63,5.63,67.66.14,77.89,0a1.59,1.59,0,0,1,1.73,2c-.28,2.05-.57,4.11-.8,6.17a1.28,1.28,0,0,0,.35.9,1.48,1.48,0,0,1-.31,2.51,1,1,0,0,0-.68,1c-.18,1.37-.39,2.74-.53,4.12a1.35,1.35,0,0,0,.37.92,1.54,1.54,0,0,1-.36,2.59,1.24,1.24,0,0,0-.56.78c-.24,1.42-.44,2.85-.59,4.28a1.15,1.15,0,0,0,.35.83,1.53,1.53,0,0,1-.4,2.62,1.08,1.08,0,0,0-.52.65c-.23,1.46-.42,2.91-.57,4.38a1.2,1.2,0,0,0,.35.84,1.54,1.54,0,0,1-.41,2.63,1,1,0,0,0-.49.64c-.31,2-.58,4.06-.84,6.09-.18,1.4-.66,1.84-2.09,1.85H67.61a16.09,16.09,0,0,1-2.14,6.3A21.32,21.32,0,0,1,51,62a1.41,1.41,0,0,0-.9.59c-.78,1.67-1.38,3.43-2.24,5.05S46,70.7,45,72.26c1.37,1.27,2.84,2.6,4.26,4a16,16,0,0,1,4.12,5.59,1.62,1.62,0,0,1-.63,2.26,20,20,0,0,1-10.45,4.39c-.23,0-.45.1-.67.15ZM76.39,3.11a18.65,18.65,0,0,0-11,4.23c-3.31,2.85-5.07,6.58-6.12,10.71q-3.75,14.84-7.48,29.67c-.41,1.65-.81,3.3-1.25,4.94a1.46,1.46,0,0,1-1.3,1.21A1.49,1.49,0,0,1,47.66,53c-.12-.25-.23-.52-.36-.78a11.78,11.78,0,0,0-3.06-4.24,2.5,2.5,0,0,1-1.07-2.21c0-2.65,0-5.31,0-8a3.38,3.38,0,0,0-1-2.59,3.18,3.18,0,0,0-3.52-.72,3,3,0,0,0-2.1,2.9c0,2.83,0,5.65,0,8.48a2.28,2.28,0,0,1-.94,2,6,6,0,0,0-1.43,1.49c-.77,1.18-1.44,2.42-2.12,3.65a1.54,1.54,0,0,1-1.54.9,1.5,1.5,0,0,1-1.35-1.16c-.07-.19-.11-.39-.16-.58q-2.19-8.72-4.39-17.43c-1.55-6.12-3-12.27-4.72-18.33S14.47,6,8.34,4.07c-1.59-.5-3.27-.72-5-1.09.25,1.86.51,3.45.67,5,.07.61.3.76.87.75q3.15,0,6.32,0c1.13,0,1.83.62,1.8,1.54s-.7,1.46-1.79,1.46c-1.9,0-3.81,0-5.71,0-.3,0-.6,0-1,0l.73,5.35.26.08H11c1.23,0,1.94.56,2,1.5s-.71,1.5-1.93,1.51H5.66l.74,5.49c1.75,0,3.39,0,5,0A1.48,1.48,0,0,1,12.79,28a1.61,1.61,0,0,1-1.6.81c-1.43,0-2.87,0-4.39,0l.74,5.47c1.19,0,2.34,0,3.48,0a2.84,2.84,0,0,1,1.17.22A1.32,1.32,0,0,1,12.94,36a1.34,1.34,0,0,1-1.34,1.24c-1.17,0-2.35,0-3.66,0l.75,5.51c1.61,0,3.11,0,4.61,0,1.2,0,1.69.52,1.82,1.72a14.81,14.81,0,0,0,.5,3.06C18,54.3,23.06,57.75,29.84,59c1.35.25,2.29.64,2.57,2.06a6.74,6.74,0,0,0,.38,1.15c1.29,3.25,2.63,6.46,5.42,8.81.93.79.82,1.71-.17,2.58-1.49,1.31-3.06,2.55-4.48,3.93s-2.78,3-4.17,4.48c6,4.81,15.4,4.56,20.86.07a24.07,24.07,0,0,0-1.85-2.27c-2.12-2-4.28-4-6.47-6-1.32-1.19-1.36-2,0-3.17a9.78,9.78,0,0,0,1.16-1.16,26.06,26.06,0,0,0,4.33-8.69,2.2,2.2,0,0,1,2.08-1.72,17.41,17.41,0,0,0,8.65-3.45c3.67-2.7,6.15-6.14,6.46-10.84.12-1.64.53-2,2.21-2h4.25l.72-5.47c-1.12,0-2.09,0-3.07,0a2.8,2.8,0,0,1-1.09-.17,1.36,1.36,0,0,1-.82-1.56,1.42,1.42,0,0,1,1.51-1.27c1.29,0,2.58,0,3.89,0l.73-5.48H72c-1.13,0-2.25,0-3.38,0a2.57,2.57,0,0,1-1-.18A1.37,1.37,0,0,1,66.8,27a1.44,1.44,0,0,1,1.53-1.25h5l.73-5.49c-2,0-3.84,0-5.68,0a1.52,1.52,0,0,1-1.64-1.53,1.53,1.53,0,0,1,1.62-1.46c.72,0,1.45,0,2.17,0h3.95l.73-5.48H74.15c-1.88,0-3.76,0-5.63,0a2,2,0,0,1-1.4-.62A2,2,0,0,1,67,9.63c.17-.64.8-.85,1.46-.85h6.49c.37,0,.74.07.8-.5C75.91,6.58,76.15,4.9,76.39,3.11Z"/><path class="cls-1" d="M41.43,40.66a8.52,8.52,0,0,1-.17,1.18,1.33,1.33,0,0,1-1.36,1,1.28,1.28,0,0,1-1.42-1,9.56,9.56,0,0,1-.08-2.39,1.43,1.43,0,0,1,1.44-1.33,1.51,1.51,0,0,1,1.52,1.36C41.41,39.78,41.4,40.13,41.43,40.66Z"/></g></g></svg>