<svg xmlns="http://www.w3.org/2000/svg" viewBox="0 0 97.55 103.2"><defs><style>.cls-1{fill:#fff;}</style></defs><title>Enseñanza</title><g id="Capa_2" data-name="Capa 2"><g id="Layer_2" data-name="Layer 2"><path class="cls-1" d="M0,90.53H6.88v1.22H1.38v4.32H6.85v1.22H1.38v4.43h5.5V103H0Z"/><path class="cls-1" d="M10.39,93.92h1.17c0,.5,0,1,0,1.61a3.37,3.37,0,0,1,3.36-1.86c2.8,0,3.79,1.94,3.79,4.14V103H17.47V98.06c0-1.94-.87-3.27-2.91-3.24a2.74,2.74,0,0,0-2.93,3V103H10.39Z"/><path class="cls-1" d="M26.49,96.18A1.41,1.41,0,0,0,25,94.69a1.43,1.43,0,0,0-1.56,1.46c0,.86.69,1.21,1.78,1.53,1.29.35,2.73.72,2.8,2.65a2.81,2.81,0,0,1-3,2.87,2.89,2.89,0,0,1-3.08-2.82h1.22a1.79,1.79,0,0,0,1.88,1.8,1.69,1.69,0,0,0,1.75-1.7c0-1-.71-1.44-2.27-1.9-1.29-.38-2.3-.9-2.33-2.33A2.6,2.6,0,0,1,25,93.67a2.55,2.55,0,0,1,2.75,2.51Z"/><path class="cls-1" d="M31.88,98.78a3.45,3.45,0,0,0,3.52,3.35,3.34,3.34,0,0,0,3.11-1.87H39.8a4.79,4.79,0,0,1-1.83,2.2,4.91,4.91,0,1,1,2.13-3.68Zm7-1a3.52,3.52,0,0,0-7,0Z"/><path class="cls-1" d="M43.2,93.92h1.18c0,.5,0,1,0,1.61a3.37,3.37,0,0,1,3.36-1.86c2.8,0,3.79,1.94,3.79,4.14V103H50.29V98.06c0-1.94-.87-3.27-2.91-3.24a2.74,2.74,0,0,0-2.93,3V103H43.2Zm7.32-2.2a2.49,2.49,0,0,1-1.69.65,5.39,5.39,0,0,1-1.53-.3A4.37,4.37,0,0,0,46,91.8a1.77,1.77,0,0,0-1.26.51l-.53-.86a2.52,2.52,0,0,1,1.68-.64,4.83,4.83,0,0,1,1.52.29,4,4,0,0,0,1.35.27A1.77,1.77,0,0,0,50,90.88Z"/><path class="cls-1" d="M64.31,103H63.07v-1.87a4,4,0,0,1-3.69,2.12,4.77,4.77,0,0,1,0-9.53,4,4,0,0,1,3.69,2.14V93.92h1.24Zm-8.39-4.5A3.53,3.53,0,0,0,59.55,102a3.36,3.36,0,0,0,3.25-2.2,3.46,3.46,0,0,0,.31-1.42A3.36,3.36,0,0,0,62.82,97a3.48,3.48,0,0,0-3.31-2.16,3.54,3.54,0,0,0-3.59,3.62Z"/><path class="cls-1" d="M68.07,93.92h1.18c0,.5,0,1,0,1.61a3.35,3.35,0,0,1,3.35-1.86c2.81,0,3.8,1.94,3.8,4.14V103H75.15V98.06c0-1.94-.87-3.27-2.9-3.24a2.75,2.75,0,0,0-2.94,3V103H68.07Z"/><path class="cls-1" d="M79.13,102l5-7.13h-4.8v-1h6.19v1l-4.9,7h5.09v1H79.13Z"/><path class="cls-1" d="M97.55,103H96.31v-1.87a4,4,0,0,1-3.69,2.12,4.77,4.77,0,0,1,0-9.53,4,4,0,0,1,3.69,2.14V93.92h1.24Zm-8.39-4.5A3.53,3.53,0,0,0,92.79,102,3.37,3.37,0,0,0,96,99.84a3.45,3.45,0,0,0,.3-1.42A3.21,3.21,0,0,0,96.06,97a3.49,3.49,0,0,0-3.31-2.16,3.54,3.54,0,0,0-3.59,3.62Z"/><path class="cls-1" d="M35,84.71a4.17,4.17,0,0,1-1.69-3.89c.07-4.7,0-9.41,0-14.11a5.35,5.35,0,0,0-4-4.69c-6.94-1.19-10.85-5.43-11.76-12.64a2.76,2.76,0,0,0-.92-1.48C11.55,43.26,10.56,37.3,14,31.31a3.12,3.12,0,0,0,.2-2.07A12.66,12.66,0,0,1,21,14.46a3.78,3.78,0,0,0,2.14-2.33A13.59,13.59,0,0,1,37.18,3.62a4,4,0,0,0,3.1-.81,14.27,14.27,0,0,1,17,0,4,4,0,0,0,3.09.81,13.78,13.78,0,0,1,14.26,8.85,3.59,3.59,0,0,0,1.65,1.77c6,3,8.63,8.67,7.07,15.18a3.07,3.07,0,0,0,.35,2,12.59,12.59,0,0,1-2.58,16.21,4,4,0,0,0-1.22,2.46A13.33,13.33,0,0,1,69.24,61.79c-3.71.76-5.06,2.43-5.06,6.23,0,4.27-.05,8.54,0,12.8a4.11,4.11,0,0,1-1.68,3.89H60.64a4,4,0,0,1-1.76-3.82c.1-3.13,0-6.26,0-9.39v-3c-2.18,0-4.22.49-5.87-.11a11.66,11.66,0,0,0-8.52,0c-1.69.61-3.77.11-5.87.11,0,4,0,8.23,0,12.41a4,4,0,0,1-1.76,3.82Zm1.5-76.86c-5.18,0-9,3-9.77,7.26a2.84,2.84,0,0,1-2.32,2.6C19,19.36,16.5,24.7,19,29.56a2.26,2.26,0,0,1-.48,3c-3.06,3.42-3.16,8.23.23,11.11,2.24,1.9,3.43,3.49,3.51,6.69.12,4.49,4.55,7.47,9.51,7.55a2.83,2.83,0,0,1,2.11.89c2.88,4.76,6.8,6.49,12.09,4.82a8.92,8.92,0,0,1,5.75,0c5,1.57,9.46-.09,11.64-4.24a2.59,2.59,0,0,1,2.75-1.56c6.09,0,10-4.44,9.4-10.48a2.13,2.13,0,0,1,1-1.67c4.88-2.48,7-9,2.22-13.76a1.81,1.81,0,0,1-.27-1.7c2.92-4.78.5-11.11-5.81-12.76A1.83,1.83,0,0,1,71,15.82c-1.15-6-6.13-9.11-12.18-7.56a2.36,2.36,0,0,1-2.72-.82C52.85,4,47.31,3,43.56,5.87,41.13,7.71,39,9.13,36.54,7.85Z"/><path class="cls-1" d="M37.18,45.74c-.81,1.06-1.47,2.07-2.26,2.93-1.84,2-4.07,2.48-5.88,1.37a5.29,5.29,0,0,1-2-6.14,11.94,11.94,0,0,1,5.06-6.1,2,2,0,0,0,1.16-2.19c-.25-2.49,1-4.26,3.2-5.49.83-.47,1.55-1.14,2.34-1.69s1.62-1.47,2.49-1.55a14,14,0,0,0,5.74-1.81.84.84,0,0,1,.35-.13c1.12,0,2.55-.32,3.28.24,2.57,1.94,6.45.61,8.54,3.59A4,4,0,0,0,60.79,30c2.57,1.18,3.78,2.91,3.63,5.74a2.07,2.07,0,0,0,1.12,2.07c2.72,2,5.27,4.14,5.35,7.91a4.51,4.51,0,0,1-2.65,4.59c-1.95.88-3.7.18-5.11-1.27-1-1-1.72-2.11-2.66-3.28a43.48,43.48,0,0,1-1.77,5.86,35.73,35.73,0,0,1-4.24,7.64c-3,3.69-7.73,3.65-11,.26s-4.57-8-5.76-12.46c-.08-.3-.14-.6-.23-.9A2.18,2.18,0,0,0,37.18,45.74ZM40.35,33a8.05,8.05,0,0,1-.87,0c-1.41-.07-2.57.41-2.84,1.88s.78,2.16,2,2.76a2.81,2.81,0,0,1,1.22,1.72c1,3.94,1.66,8,2.82,11.84a17.6,17.6,0,0,0,3,5.73,3.69,3.69,0,0,0,6.14.09,15.63,15.63,0,0,0,3-5.3c1.35-4.53,2.31-9.17,3.48-14,2-.47,2.87-1.23,2.63-2.76-.35-2.19-2.14-1.9-3.65-2-1.45-3.44-1.64-3.52-5.47-2.27-2.27-3.51-3.51-3.49-6.26.08C42.39,29.28,41.6,29.59,40.35,33ZM36.07,40.2l-.54-.43a9.23,9.23,0,0,0-5.17,5c-.25.6.2,1.49.33,2.24.62-.24,1.53-.31,1.83-.76C33.8,44.29,34.9,42.22,36.07,40.2Zm26.09-.42-.48.35c1.09,2,2.11,4,3.33,5.89.35.54,1.28.71,1.94,1,.14-.81.64-1.77.37-2.4A9,9,0,0,0,62.16,39.78Z"/></g></g></svg>