<svg xmlns="http://www.w3.org/2000/svg" viewBox="0 0 138.14 71.75"><defs><style>.cls-1{fill:#fff;}</style></defs><title>Evangelización</title><g id="Capa_2" data-name="Capa 2"><g id="Layer_2" data-name="Layer 2"><path class="cls-1" d="M0,55.41H6.88v1.23H1.38V61H6.85v1.23H1.38v4.43h5.5v1.22H0Z"/><path class="cls-1" d="M14.16,67.83H12.87l-3.56-9h1.31l2.9,7.51,2.89-7.51h1.31Z"/><path class="cls-1" d="M29.06,67.83H27.82V66a4,4,0,0,1-3.69,2.11,4.77,4.77,0,0,1,0-9.53,4,4,0,0,1,3.69,2.15V58.8h1.24Zm-8.39-4.5a3.53,3.53,0,0,0,3.63,3.6,3.38,3.38,0,0,0,3.25-2.2,3.49,3.49,0,0,0,.3-1.43,3.17,3.17,0,0,0-.28-1.44,3.49,3.49,0,0,0-3.31-2.17,3.54,3.54,0,0,0-3.59,3.63Z"/><path class="cls-1" d="M32.82,58.8H34c0,.51,0,1,0,1.61a3.38,3.38,0,0,1,3.35-1.86c2.81,0,3.8,2,3.8,4.15v5.13H39.9V63c0-2-.87-3.27-2.9-3.24a2.74,2.74,0,0,0-2.94,3v5.1H32.82Z"/><path class="cls-1" d="M53.89,66.79a4.62,4.62,0,0,1-1.34,3.56,5.07,5.07,0,0,1-3.42,1.4,4.58,4.58,0,0,1-4.47-2.93h1.43A3.43,3.43,0,0,0,47.16,70a3.46,3.46,0,0,0,5.49-2.93V65.92A3.89,3.89,0,0,1,49,68.08a4.77,4.77,0,0,1,0-9.53,4,4,0,0,1,3.66,2.12V58.8h1.22Zm-8.35-3.47a3.62,3.62,0,0,0,6.16,2.57,3.77,3.77,0,0,0,1-2.56A3.89,3.89,0,0,0,51.88,61a3.32,3.32,0,0,0-2.75-1.26,3.51,3.51,0,0,0-3.59,3.59Z"/><path class="cls-1" d="M58.19,63.67A3.42,3.42,0,0,0,61.71,67a3.35,3.35,0,0,0,3.11-1.86h1.29a4.68,4.68,0,0,1-4.4,2.93A4.66,4.66,0,0,1,57,63.33a4.74,4.74,0,1,1,9.46.34Zm7-1a3.52,3.52,0,0,0-7,0Z"/><path class="cls-1" d="M69.51,55.41h1.24V67.83H69.51Z"/><path class="cls-1" d="M74.5,55.41h1.24v1.73H74.5Zm0,3.39h1.24v9H74.5Z"/><path class="cls-1" d="M78.5,66.93l5-7.14h-4.8v-1H84.9v1l-4.9,7h5.08v1H78.5Z"/><path class="cls-1" d="M96.93,67.83H95.69V66A4,4,0,0,1,92,68.08a4.77,4.77,0,0,1,0-9.53,4,4,0,0,1,3.69,2.15V58.8h1.24Zm-8.39-4.5a3.53,3.53,0,0,0,3.63,3.6,3.39,3.39,0,0,0,3.25-2.2,3.49,3.49,0,0,0,.3-1.43,3.17,3.17,0,0,0-.28-1.44,3.5,3.5,0,0,0-3.31-2.17,3.54,3.54,0,0,0-3.59,3.63Z"/><path class="cls-1" d="M109.48,64.78a4.8,4.8,0,1,1,0-2.86h-1.27a3.47,3.47,0,0,0-3.28-2.23,3.43,3.43,0,0,0-2.55,1,3.7,3.7,0,0,0-1,2.6,3.51,3.51,0,0,0,3.56,3.61,3.41,3.41,0,0,0,3.27-2.15Z"/><path class="cls-1" d="M112.6,55.41h1.24v1.73H112.6Zm0,3.39h1.24v9H112.6Z"/><path class="cls-1" d="M117,63.3a4.8,4.8,0,1,1,4.79,4.77A4.67,4.67,0,0,1,117,63.3Zm1.23,0a3.56,3.56,0,1,0,3.56-3.62,3.52,3.52,0,0,0-3.56,3.62Zm5.49-8.64.45.91-4,2.16-.41-.8Z"/><path class="cls-1" d="M129.83,58.8H131c0,.51,0,1,0,1.61a3.39,3.39,0,0,1,3.36-1.86c2.8,0,3.79,2,3.79,4.15v5.13h-1.23V63c0-2-.87-3.27-2.9-3.24a2.74,2.74,0,0,0-2.94,3v5.1h-1.24Z"/><path class="cls-1" d="M118.31,22.61,134.05,41l-4.81,3.43L113.46,26.24C95.39,40.5,75.5,47.13,53.1,44.87,34.72,43,19,35.06,5.34,22.77,30.25-1.45,74.41-11.56,113.47,18.89l15.76-18,4.85,3.31Zm-103.66.07c29,23.17,67.53,21.21,93.37,0A73.29,73.29,0,0,0,14.65,22.68Z"/></g></g></svg>