<svg xmlns="http://www.w3.org/2000/svg" viewBox="0 0 112.47 89.22"><defs><style>.cls-1{fill:#fff;}</style></defs><title>Matrimonios</title><g id="Capa_2" data-name="Capa 2"><g id="Layer_2" data-name="Layer 2"><path class="cls-1" d="M0,89V76.55H2L6.55,87l4.58-10.42h1.95V89H11.77l0-11L7,89H6.09l-4.83-11,0,11Z"/><path class="cls-1" d="M25.93,89H24.68V87.11A4,4,0,0,1,21,89.22a4.77,4.77,0,0,1,0-9.53,4,4,0,0,1,3.69,2.15v-1.9h1.25Zm-8.4-4.5a3.53,3.53,0,0,0,3.63,3.6,3.4,3.4,0,0,0,3.26-2.2,3.49,3.49,0,0,0,.3-1.43A3.31,3.31,0,0,0,24.43,83a3.47,3.47,0,0,0-3.3-2.17,3.54,3.54,0,0,0-3.6,3.63Z"/><path class="cls-1" d="M30.39,80.93H28.61v-1h1.78V76.55h1.22v3.39h2v1h-2v8H30.39Z"/><path class="cls-1" d="M36.29,79.94h1.18v1.48a3.07,3.07,0,0,1,2.88-1.73v1.23h-.11c-1.75,0-2.72,1.09-2.72,3.13V89H36.29Z"/><path class="cls-1" d="M43,76.55h1.24v1.73H43Zm0,3.39h1.24v9H43Z"/><path class="cls-1" d="M48,79.94h1.17v1.43a3.24,3.24,0,0,1,2.85-1.68,3.2,3.2,0,0,1,2.47,1,4.66,4.66,0,0,1,.59.94,4,4,0,0,1,.65-1,3.42,3.42,0,0,1,2.49-1,3.32,3.32,0,0,1,2.43.91c.79.78,1,1.76,1,3.35v5H60.47V84a3.56,3.56,0,0,0-.67-2.4A2.13,2.13,0,0,0,58,80.85a2.36,2.36,0,0,0-2,.94A3.15,3.15,0,0,0,55.49,84v5H54.25V84a3.51,3.51,0,0,0-.47-2.15,2.33,2.33,0,0,0-2-1,2.21,2.21,0,0,0-1.92.92,3.55,3.55,0,0,0-.6,2.17v5H48Z"/><path class="cls-1" d="M64.86,84.44a4.8,4.8,0,1,1,4.79,4.77,4.67,4.67,0,0,1-4.79-4.77Zm1.23,0a3.56,3.56,0,1,0,3.56-3.62,3.52,3.52,0,0,0-3.56,3.62Z"/><path class="cls-1" d="M77.65,79.94h1.18c0,.51,0,1,0,1.61a3.39,3.39,0,0,1,3.36-1.86c2.8,0,3.79,2,3.79,4.15V89H84.73V84.09c0-2-.87-3.28-2.9-3.24a2.74,2.74,0,0,0-2.94,3V89H77.65Z"/><path class="cls-1" d="M89.7,76.55h1.24v1.73H89.7Zm0,3.39h1.24v9H89.7Z"/><path class="cls-1" d="M94.14,84.44a4.8,4.8,0,1,1,4.79,4.77,4.67,4.67,0,0,1-4.79-4.77Zm1.23,0a3.56,3.56,0,1,0,3.56-3.62,3.52,3.52,0,0,0-3.56,3.62Z"/><path class="cls-1" d="M111,82.21a1.42,1.42,0,0,0-1.54-1.5,1.44,1.44,0,0,0-1.57,1.46c0,.86.69,1.21,1.78,1.53,1.3.35,2.74.72,2.81,2.65a2.82,2.82,0,0,1-3,2.87,2.9,2.9,0,0,1-3.09-2.82h1.23a1.78,1.78,0,0,0,1.88,1.8,1.67,1.67,0,0,0,1.74-1.7c0-1-.7-1.44-2.26-1.89-1.3-.39-2.3-.91-2.34-2.34a2.61,2.61,0,0,1,2.82-2.58,2.57,2.57,0,0,1,2.76,2.52Z"/><path class="cls-1" d="M10.59,36.15c.5-1.95.9-3.92,1.51-5.83a27.76,27.76,0,0,1,9-12.83c-2-1.88-3.76-3.71-5.67-5.42-1.31-1.17-1.47-2.18-.3-3.6,2-2.41,3.72-5,5.73-7.37A3.42,3.42,0,0,1,23.35,0c3.36.28,6.7.82,10,1.26a1.9,1.9,0,0,1,1.83,2.21c0,2.69,0,5.38,0,7.69,4.05.62,7.75,1.18,11.46,1.76a4.56,4.56,0,0,1,.78.22C50,14,51,15.49,50.34,17.43c-.61,1.72-2.28,2.2-4.81,1.37C31.15,14.12,16.68,24.29,16.7,39.06c0,11,8.16,19.82,19.53,21.25,10.16,1.28,20.43-5.77,23.06-15.84,1.62-6.18.55-11.88-3-17.46-3.67,5.76-4.67,11.66-2.85,18,.13.45.31.9.42,1.36A2.81,2.81,0,0,1,52,50a2.73,2.73,0,0,1-3.8-1.67,40.7,40.7,0,0,1-1.65-9.52,27.24,27.24,0,0,1,25.34-27c15.37-.85,28,9.22,29.73,23.88,1.3,11.27-3,20.29-12.45,26.32-9.7,6.16-19.81,5.9-29.76.19-1-.61-2-1.35-2.65-1.77-3.82,1.74-7.27,3.85-11,4.94C29.58,70,13.47,59.35,10.89,42.55a3,3,0,0,0-.3-.72Zm50-13.6a27.58,27.58,0,0,1,0,32.9C68.3,62.59,81.94,61.89,89.7,54a21.11,21.11,0,0,0,0-29.91C81.81,16.08,68.13,15.37,60.63,22.55Zm-37.17-7c2.63-1,5.21-2,7.75-3a1.77,1.77,0,0,0,1-1.22c.09-2.35,0-4.7,0-7.15C29.35,3.74,26.7,3.32,24,3a1.73,1.73,0,0,0-1.33.59C21,5.68,19.42,7.83,17.86,9.87Z"/></g></g></svg>