<svg xmlns="http://www.w3.org/2000/svg" viewBox="0 0 111.61 99.74"><defs><style>.cls-1{fill:#fff;}</style></defs><title>Misericordia</title><g id="Capa_2" data-name="Capa 2"><g id="Layer_2" data-name="Layer 2"><path class="cls-1" d="M0,99.48V87.06H2l4.6,10.43,4.58-10.43h1.95V99.48H11.77l0-11L7,99.48H6.09l-4.83-11,0,11Z"/><path class="cls-1" d="M16.86,87.06H18.1v1.73H16.86Zm0,3.39H18.1v9H16.86Z"/><path class="cls-1" d="M25.92,92.72a1.41,1.41,0,0,0-1.54-1.49,1.43,1.43,0,0,0-1.56,1.46c0,.85.69,1.21,1.78,1.52,1.29.36,2.73.73,2.8,2.66a2.81,2.81,0,0,1-3,2.87,2.91,2.91,0,0,1-3.09-2.82h1.23a1.78,1.78,0,0,0,1.88,1.79A1.68,1.68,0,0,0,26.18,97c0-1-.71-1.45-2.27-1.9-1.29-.39-2.3-.91-2.33-2.33A2.61,2.61,0,0,1,24.4,90.2a2.56,2.56,0,0,1,2.75,2.52Z"/><path class="cls-1" d="M31.31,95.32a3.44,3.44,0,0,0,3.52,3.34,3.35,3.35,0,0,0,3.11-1.86h1.29A4.84,4.84,0,0,1,37.4,99a4.76,4.76,0,0,1-2.57.74A4.66,4.66,0,0,1,30.07,95a4.74,4.74,0,1,1,9.46.33Zm7-1a3.52,3.52,0,0,0-7,0Z"/><path class="cls-1" d="M42.63,90.45h1.18v1.48A3.09,3.09,0,0,1,46.7,90.2v1.23h-.12c-1.75,0-2.72,1.09-2.72,3.14v4.91H42.63Z"/><path class="cls-1" d="M49.38,87.06h1.24v1.73H49.38Zm0,3.39h1.24v9H49.38Z"/><path class="cls-1" d="M63.17,96.43a4.81,4.81,0,1,1,0-2.85H61.9a3.58,3.58,0,0,0-5.83-1.21,3.72,3.72,0,0,0-1,2.6,3.51,3.51,0,0,0,3.56,3.61,3.4,3.4,0,0,0,3.27-2.15Z"/><path class="cls-1" d="M65.74,95a4.79,4.79,0,1,1,4.78,4.77A4.67,4.67,0,0,1,65.74,95ZM67,95a3.56,3.56,0,1,0,3.56-3.63A3.52,3.52,0,0,0,67,95Z"/><path class="cls-1" d="M78.52,90.45H79.7v1.48a3.08,3.08,0,0,1,2.88-1.73v1.23h-.11c-1.75,0-2.72,1.09-2.72,3.14v4.91H78.52Z"/><path class="cls-1" d="M93.76,99.48H92.57V97.62a4,4,0,0,1-3.73,2.12,4.77,4.77,0,0,1,0-9.54,4,4,0,0,1,3.69,2.08V87.06h1.24ZM85.4,95a3.63,3.63,0,0,0,6.19,2.55,3.49,3.49,0,0,0,1-2.6,3.43,3.43,0,0,0-1-2.53A3.61,3.61,0,0,0,85.4,95Z"/><path class="cls-1" d="M97.55,87.06h1.24v1.73H97.55Zm0,3.39h1.24v9H97.55Z"/><path class="cls-1" d="M111.61,99.48h-1.24V97.62a4,4,0,0,1-3.69,2.12,4.77,4.77,0,0,1,0-9.54,4,4,0,0,1,3.69,2.15v-1.9h1.24ZM103.22,95a3.53,3.53,0,0,0,3.63,3.59,3.36,3.36,0,0,0,3.25-2.2,3.49,3.49,0,0,0,.3-1.43,3.2,3.2,0,0,0-.28-1.44,3.49,3.49,0,0,0-3.31-2.17A3.55,3.55,0,0,0,103.22,95Z"/><path class="cls-1" d="M55.75,14.46C57,12.6,58,11,59.11,9.52c5.56-7.09,12.85-10,21.62-8,9.1,2.07,14.41,8.32,16.58,17.21,2.7,11.11-1.24,20.5-8.88,28.16C80,55.35,70.85,63.22,61.88,71.2c-5.94,5.29-6.17,5.3-12.1,0-9-8-18-15.92-26.57-24.33a31.12,31.12,0,0,1-9.68-20.16C12.49,13.47,21.4,2.13,34.31,1,43.21.23,49.5,4.74,54.2,11.9,54.68,12.64,55.12,13.41,55.75,14.46Zm0,57.19c10.2-9.44,20-18.28,29.44-27.38A33.28,33.28,0,0,0,91.08,36c4.29-8,4.15-16-1.1-23.6a16.54,16.54,0,0,0-26.43-1.53c-2.18,2.53-3.52,5.77-5.32,8.64A27.18,27.18,0,0,1,56,22.23a17,17,0,0,1-2.55-2.69C52.13,17.41,51.25,15,49.82,13,45.94,7.46,40.68,4.3,33.76,5.18,26.54,6.1,21.7,10.33,19.15,17.1c-3.7,9.8-.82,18.5,6,25.49C34.74,52.54,45.17,61.72,55.7,71.65Z"/><path class="cls-1" d="M55.82,76.05c-1.75,0-3.5-1.38-6.62-4.16l-2-1.8C39,62.83,30.53,55.32,22.59,47.53a31.89,31.89,0,0,1-9.94-20.72C11.56,13,21,1.27,34.23.13c8.46-.75,15.23,3,20.71,11.28.28.44.55.89.85,1.39l.38-.58C56.92,11.07,57.62,10,58.42,9,64.28,1.5,72.06-1.39,80.92.62s14.9,8.21,17.25,17.87c2.57,10.59-.49,20.34-9.11,29-7,7.07-14.65,13.8-22,20.31l-4.6,4.07C59.33,74.66,57.57,76.05,55.82,76.05ZM36.26,1.8c-.62,0-1.24,0-1.87.09-12.22,1.06-21,12-20,24.78a30.19,30.19,0,0,0,9.42,19.6C31.74,54,40.18,61.52,48.35,68.77l2,1.8c2.75,2.45,4.25,3.72,5.45,3.72h0c1.21,0,2.71-1.28,5.47-3.75l4.6-4.08C73.22,60,80.8,53.26,87.81,46.23,96,38.05,98.87,28.86,96.45,18.9,94.24,9.82,88.88,4.25,80.53,2.35s-15.24.71-20.72,7.71c-.75,1-1.43,2-2.16,3.13L56.49,15l-.78,1.15L55,14.92l-.59-1c-.34-.58-.63-1.08-.95-1.56C48.79,5.28,43.15,1.8,36.26,1.8ZM55.7,72.86l-.6-.57c-3.19-3-6.4-6-9.51-8.84-7.4-6.83-14.38-13.29-21.12-20.25-7.59-7.83-9.72-17-6.15-26.42,2.73-7.23,8-11.54,15.33-12.47,6.78-.87,12.47,1.87,16.9,8.15a29,29,0,0,1,2.13,3.79,31.79,31.79,0,0,0,1.52,2.82,8.69,8.69,0,0,0,1.55,1.7l.19.18a.86.86,0,0,1,.13-.14,14.89,14.89,0,0,0,1.41-1.76c.62-1,1.2-2.05,1.76-3.08a32.54,32.54,0,0,1,3.64-5.67A17.48,17.48,0,0,1,77.07,4.14a17.67,17.67,0,0,1,13.64,7.77c5.35,7.72,5.73,16,1.15,24.52a33.69,33.69,0,0,1-6.11,8.48c-6.91,6.62-13.85,13-21.19,19.77-2.73,2.51-5.48,5-8.26,7.62ZM36,5.92a17.43,17.43,0,0,0-2.13.14c-6.7.85-11.38,4.67-13.9,11.35C16.66,26.17,18.66,34.67,25.74,42c6.7,6.92,13.67,13.35,21.05,20.17,2.91,2.7,5.92,5.48,8.92,8.29,2.57-2.39,5.12-4.73,7.65-7.06,7.34-6.76,14.27-13.14,21.17-19.75a31.88,31.88,0,0,0,5.77-8c4.25-7.92,3.9-15.55-1-22.69A15.94,15.94,0,0,0,77,5.91a15.7,15.7,0,0,0-12.76,5.55,30,30,0,0,0-3.43,5.36C60.22,17.87,59.62,19,59,20a14.86,14.86,0,0,1-1.59,2c-.24.26-.47.53-.7.8l-.63.76-.68-.71c-.26-.26-.54-.52-.82-.77A10.86,10.86,0,0,1,52.69,20c-.59-1-1.1-2-1.59-3a26.47,26.47,0,0,0-2-3.56C45.56,8.46,41.16,5.92,36,5.92Z"/></g></g></svg>