<svg xmlns="http://www.w3.org/2000/svg" viewBox="0 0 156.24 178.56"><defs><style>.cls-1{fill:#fff;}</style></defs><title>Logo-RESM</title><g id="Capa_2" data-name="Capa 2"><g id="Layer_2" data-name="Layer 2"><path class="cls-1" d="M156.22,65.93a9.43,9.43,0,0,0-7.82-9.28A71.08,71.08,0,0,0,9.21,56.59,9.43,9.43,0,0,0,0,66L0,103.9a9.43,9.43,0,0,0,9.42,9.42H23.36l0-56.73h-6a63.19,63.19,0,0,1,123-.06h-7.4l0,56.74h13.92a9.43,9.43,0,0,0,9.41-9.42ZM18.87,61l0,47.83H9.44a5,5,0,0,1-5-5l0-37.9a5,5,0,0,1,5-5Zm102.45-39.9A65.61,65.61,0,0,0,15,55.89h-.71a66.3,66.3,0,0,1,129-.06h-.71A66.09,66.09,0,0,0,121.32,21.13ZM146.8,61a5,5,0,0,1,5,5l0,37.9a5,5,0,0,1-5,5h-9.45l0-47.82Z"/><polygon class="cls-1" points="31.87 142.09 50.93 142.08 50.93 135.3 39.49 135.31 39.48 112.6 49.73 112.6 49.73 105.82 39.48 105.83 39.47 86.17 50.9 86.17 50.9 79.39 31.84 79.4 31.87 142.09"/><path class="cls-1" d="M64.31,142.11a17.66,17.66,0,0,0,2.72.34c.79,0,1.32,0,1.6,0a14.87,14.87,0,0,0,5.93-1.1,11.58,11.58,0,0,0,4.2-3,12.14,12.14,0,0,0,2.45-4.36,17.37,17.37,0,0,0,.8-5.38,20.58,20.58,0,0,0-1.4-7.5,38,38,0,0,0-3.47-6.82,70.25,70.25,0,0,0-4.46-6.14c-1.58-1.94-3.06-3.81-4.45-5.59a42.54,42.54,0,0,1-3.47-5.12,9.49,9.49,0,0,1-1.4-4.66,11.71,11.71,0,0,1,.21-2.2,5.76,5.76,0,0,1,.76-2,4.05,4.05,0,0,1,1.52-1.44,5.14,5.14,0,0,1,2.5-.56q3.06.09,4.24,2A7.59,7.59,0,0,1,73.69,93v6.35h7.79V91.53a17.25,17.25,0,0,0-.26-2.71,15.22,15.22,0,0,0-1-3.3,10,10,0,0,0-2.17-3.18,11.39,11.39,0,0,0-3.85-2.41,15.83,15.83,0,0,0-6-1,14.93,14.93,0,0,0-6.14,1.1,10,10,0,0,0-3.85,3,11.23,11.23,0,0,0-2,4.28,20.83,20.83,0,0,0-.59,5,18.87,18.87,0,0,0,1.4,7.16,41.81,41.81,0,0,0,3.48,6.69A69.23,69.23,0,0,0,65,112.46q2.42,3,4.49,5.85A37.56,37.56,0,0,1,73,123.9a12.12,12.12,0,0,1,1.35,5.37,5,5,0,0,1-1.65,4.16,6.14,6.14,0,0,1-4,1.35,6,6,0,0,1-4.28-1.39q-1.48-1.39-1.48-4.62v-5.08h-7.7v5.09a18,18,0,0,0,.85,6,11.77,11.77,0,0,0,2.2,3.9,10,10,0,0,0,3,2.32A11.86,11.86,0,0,0,64.31,142.11Z"/><polygon class="cls-1" points="106.07 126.72 95.46 79.37 88 79.37 88.03 142.06 95.66 142.06 95.73 108.51 95.72 104.78 102.18 142.05 110.23 142.05 116.65 104.77 116.65 108.41 116.41 142.05 124.04 142.04 124.01 79.35 116.72 79.36 106.07 126.72"/><path class="cls-1" d="M56.86,173.44a.64.64,0,0,0-1,0,14.63,14.63,0,0,1-9.36,3.46c-7.58,0-12.74-6-12.75-13.57s5.2-13.16,12.61-13.16A14.73,14.73,0,0,1,55.1,153a.65.65,0,0,0,1-.09l.21-.25a.68.68,0,0,0-.08-1,15.57,15.57,0,0,0-9.91-3.2c-8.45,0-14.45,6.42-14.44,14.87s5.88,15.28,14.62,15.27A15.71,15.71,0,0,0,57,174.64a.64.64,0,0,0,0-1Z"/><path class="cls-1" d="M75.75,148.41A14.56,14.56,0,0,0,61,163.28c0,8.57,6.38,15.27,14.75,15.27s14.73-6.71,14.73-15.29A14.56,14.56,0,0,0,75.75,148.41Zm0,28.43c-7.36,0-12.86-5.9-12.87-13.56,0-7.46,5.49-13.16,12.86-13.17s12.87,5.7,12.87,13.15C88.63,170.92,83.13,176.84,75.76,176.84Z"/><path class="cls-1" d="M121.09,148.88h-.5a.82.82,0,0,0-.84.55l-8.23,17.78c-.67,1.41-1.41,3.29-1.41,3.29H110s-.75-1.88-1.41-3.29l-8.26-17.77a.8.8,0,0,0-.83-.55H99a.68.68,0,0,0-.71.66l-2.23,27.73c0,.5.21.75.71.75h.37a.67.67,0,0,0,.71-.67l1.74-21.56c.12-1.42.12-4,.12-4h.08s.92,2.58,1.55,4l7.54,16.07a.81.81,0,0,0,.83.54h.67a.82.82,0,0,0,.83-.54l7.57-16.07c.67-1.42,1.5-3.88,1.5-3.88h.08s0,2.46.13,3.88l1.76,21.56a.66.66,0,0,0,.7.67h.38c.5,0,.71-.25.71-.75l-2.27-27.73A.66.66,0,0,0,121.09,148.88Z"/><path class="cls-1" d="M45.62,58.13a5.83,5.83,0,0,0-3.15-5.46A8.61,8.61,0,0,0,38.38,52h-6.1a.49.49,0,0,0-.55.55V74.17a.49.49,0,0,0,.55.55h.29a.49.49,0,0,0,.55-.55V64.66h6.52l5.2,9.67a.66.66,0,0,0,.65.39H46c.42,0,.58-.26.39-.65l-4.75-8.8a4.48,4.48,0,0,0-.52-.81V64.4C43.74,63.81,45.63,61.37,45.62,58.13ZM39.3,63.36H33.13V53.3h5.2a7,7,0,0,1,3.18.46,4.6,4.6,0,0,1,2.66,4.38C44.17,61.21,42.28,63.36,39.3,63.36Z"/><path class="cls-1" d="M49.33,74.71a.59.59,0,0,0,.62-.45l2.76-7.4h9.64l2.8,7.44a.59.59,0,0,0,.61.42h.36c.42,0,.58-.26.45-.65L58.45,52.44a.6.6,0,0,0-.62-.45h-.58a.59.59,0,0,0-.62.45L48.52,74.07c-.13.39,0,.65.46.65Zm7.33-18.37c.36-1,.85-2.73.85-2.73h.06s.49,1.75.85,2.73l3.44,9.21H53.19Z"/><path class="cls-1" d="M77.8,52H71.21a.5.5,0,0,0-.56.55V74.15a.5.5,0,0,0,.56.55h6.59c6.75,0,11.33-4.13,11.32-11.37S84.55,52,77.8,52ZM77.58,73.4H72.06V53.28h5.52c6,0,10.1,3.57,10.1,10.06S83.62,73.4,77.58,73.4Z"/><path class="cls-1" d="M112.5,51.57A11.36,11.36,0,0,0,101,63.16c0,6.69,5,11.92,11.5,11.91S124,69.84,124,63.15A11.35,11.35,0,0,0,112.5,51.57Zm0,22.17c-5.74,0-10-4.6-10-10.58a10,10,0,1,1,20.06,0C122.54,69.13,118.26,73.74,112.51,73.74Z"/><path class="cls-1" d="M95.26,38.19H95a.5.5,0,0,0-.55.55v8H86.58a.5.5,0,0,0-.55.55v.29a.5.5,0,0,0,.55.56h7.84v26a.49.49,0,0,0,.55.55h.29a.5.5,0,0,0,.56-.55l0-26h7.8a.5.5,0,0,0,.55-.55v-.3a.5.5,0,0,0-.55-.55h-7.8v-8A.5.5,0,0,0,95.26,38.19Z"/><circle class="cls-1" cx="130.65" cy="138.26" r="3.78"/></g></g></svg>