<svg xmlns="http://www.w3.org/2000/svg" viewBox="0 0 79.63 113.29"><defs><style>.cls-1{fill:#fff;}</style></defs><title>Deporte</title><g id="Capa_2" data-name="Capa 2"><g id="Layer_2" data-name="Layer 2"><path class="cls-1" d="M3.64,97.45H7.35a6.1,6.1,0,0,1,4.89,1.86,6.2,6.2,0,0,1,1.49,4.33c0,3.74-2.13,6.23-6.31,6.23H3.64ZM5,108.64H7.49c3.19,0,4.85-2,4.85-5a5.28,5.28,0,0,0-1.21-3.62,4.74,4.74,0,0,0-3.64-1.4H5Z"/><path class="cls-1" d="M17.5,105.71A3.45,3.45,0,0,0,21,109.05a3.32,3.32,0,0,0,3.1-1.87h1.3a4.71,4.71,0,0,1-4.4,2.94,4.77,4.77,0,0,1,0-9.53,4.62,4.62,0,0,1,4.72,5.12Zm7-1a3.52,3.52,0,0,0-7,0Z"/><path class="cls-1" d="M28.83,100.84H30v1.88a4.16,4.16,0,0,1,3.78-2.13,4.77,4.77,0,0,1,0,9.53,4,4,0,0,1-3.71-2.1v5.27H28.83Zm8.34,4.5a3.52,3.52,0,0,0-3.62-3.61A3.58,3.58,0,0,0,31,102.79a3.72,3.72,0,0,0-1,2.58A3.52,3.52,0,0,0,33.58,109a3.52,3.52,0,0,0,3.59-3.61Z"/><path class="cls-1" d="M41.09,105.34a4.8,4.8,0,1,1,4.79,4.76,4.67,4.67,0,0,1-4.79-4.76Zm1.23,0a3.56,3.56,0,1,0,3.56-3.62,3.51,3.51,0,0,0-3.56,3.62Z"/><path class="cls-1" d="M53.88,100.84h1.18v1.48a3,3,0,0,1,2.88-1.73v1.22h-.12c-1.74,0-2.72,1.09-2.72,3.14v4.92H53.88Z"/><path class="cls-1" d="M61.78,101.83H60v-1h1.78V97.45H63v3.39h2v1H63v8H61.78Z"/><path class="cls-1" d="M67.74,105.71a3.45,3.45,0,0,0,3.52,3.34,3.34,3.34,0,0,0,3.11-1.87h1.29a4.74,4.74,0,0,1-1.83,2.2A4.91,4.91,0,1,1,76,105.71Zm7-1a3.52,3.52,0,0,0-7,0Z"/><path class="cls-1" d="M37.23,27.55C35.56,27,34,26.48,32.49,26.07a1.68,1.68,0,0,0-1.23.34c-3.27,2.31-6.45,4.77-9.8,7-1.47,1-3.12,1.93-5.1,1.47a5.7,5.7,0,0,1-4.4-4,5.16,5.16,0,0,1,1.36-5.53,17.46,17.46,0,0,1,2.25-2c3.85-2.8,7.73-5.56,11.58-8.35a6.61,6.61,0,0,1,5.56-1.23c5,1.1,10,2,14.95,3.37,2.34.65,4.46,2.17,6.59,3.45a7.49,7.49,0,0,1,3.29,3.58c.63,1.55,1.11,3.16,1.74,4.71C60.52,32,61.83,35,63.07,38a1.13,1.13,0,0,0,1.25.84c3.15,0,6.3,0,9.45,0A5.8,5.8,0,0,1,75,50.34a7.8,7.8,0,0,1-1.6.13c-4.26,0-8.52,0-12.78,0a6,6,0,0,1-5.91-3.83c-.82-1.77-1.62-3.55-2.54-5.56l-3.28,6.44,4.16,3.69,4.5,4A6.72,6.72,0,0,1,60,62.1c-1.31,6.44-2.29,13-3.78,19.36-.74,3.18-3,5.91-6.71,5.92a6.7,6.7,0,0,1-6.62-5.75A10.17,10.17,0,0,1,43,78.34q1.29-7,2.71-13.9A1.15,1.15,0,0,0,45.1,63c-2.76-1.65-5.49-3.36-8.33-5.11-.24.31-.48.6-.7.9-1.59,2.25-3.19,4.5-4.77,6.75a9.67,9.67,0,0,1-8.19,4.36c-5.36,0-10.73.06-16.1,0A6.77,6.77,0,0,1,4.87,56.63a9.06,9.06,0,0,1,2.43-.32c4.12,0,8.23,0,12.35,0a1.79,1.79,0,0,0,1.78-1c1.26-2.08,2.59-4.12,3.89-6.17a13.76,13.76,0,0,0,2.32-5,11.66,11.66,0,0,1,1.74-3.76C31.93,36.13,34.56,31.91,37.23,27.55ZM53.11,79.83a4.09,4.09,0,0,1-.25-1.22q1.64-8.7,3.33-17.38a2.82,2.82,0,0,0-1-2.95q-4.65-4.06-9.26-8.17c-1.67-1.48-1.73-1.87-.73-3.86,2.92-5.8,5.87-11.59,8.74-17.41a3.7,3.7,0,0,0-1.64-5.06q-2-1.17-4.11-2.28a6.9,6.9,0,0,0-1.56-.66C41.83,19.76,37,18.71,32.2,17.65a3.17,3.17,0,0,0-2.74.49c-4.05,2.94-8.13,5.85-12.19,8.77-.38.27-.89.49-1.08.86a3.22,3.22,0,0,0-.46,1.94A2.11,2.11,0,0,0,17.12,31,2.72,2.72,0,0,0,19,30.41c3.72-2.61,7.4-5.27,11.08-7.94a2.45,2.45,0,0,1,2.29-.55c2.79.88,5.6,1.74,8.37,2.67a1.88,1.88,0,0,1,1.08,2.94c-3,4.93-6.13,9.82-9.11,14.78a10.67,10.67,0,0,0-1.51,3.94c-.38,2.94,1.55,4.67,3.8,6.06,4.56,2.81,9.15,5.57,13.72,8.37,1.27.77,1.47,1.29,1.19,2.76q-1.59,8.22-3.17,16.43a2.87,2.87,0,0,0,2.16,3.53,2.93,2.93,0,0,0,3.49-2.09A9.57,9.57,0,0,1,53.11,79.83ZM28.42,51.53C26.88,54,25.3,56.4,23.76,58.88a2.47,2.47,0,0,1-2.39,1.31c-1.5,0-3,0-4.5,0-3.29,0-6.58,0-9.87,0a2.91,2.91,0,0,0-3.1,2.88A2.78,2.78,0,0,0,6.71,66c5.69,0,11.37,0,17.05,0a4.47,4.47,0,0,0,3.57-1.73c2.08-2.71,4-5.51,6-8.2ZM56.54,32.45c-.71,1.4-1.34,2.55-1.88,3.75a1.48,1.48,0,0,0,.08,1.09q1.68,3.89,3.44,7.74a2.19,2.19,0,0,0,2,1.56H73.8a1.78,1.78,0,0,0,1.8-1.27c.49-1.39-.43-2.58-2.07-2.59-3.57,0-7.15,0-10.73,0-1.65,0-2.06-.26-2.69-1.76Z"/><path class="cls-1" d="M60,19.4a9.76,9.76,0,0,1-9.55-9.86,9.71,9.71,0,0,1,19.42.33A9.72,9.72,0,0,1,60,19.4Zm.16-3.89a5.82,5.82,0,1,0,0-11.63,5.86,5.86,0,0,0-5.84,5.88A5.79,5.79,0,0,0,60.19,15.51Z"/></g></g></svg>