<svg xmlns="http://www.w3.org/2000/svg" viewBox="0 0 90.4 154.88"><defs><style>.cls-1{fill:#fff;}</style></defs><title>Liturgia</title><g id="Capa_2" data-name="Capa 2"><g id="Layer_2" data-name="Layer 2"><path class="cls-1" d="M12.44,138.54h1.39v11.2h4.73V151H12.44Z"/><path class="cls-1" d="M21.18,138.54h1.24v1.73H21.18Zm0,3.39h1.24v9H21.18Z"/><path class="cls-1" d="M26.88,142.92H25.1v-1h1.78v-3.39h1.23v3.39h2v1h-2v8H26.88Z"/><path class="cls-1" d="M41.1,151H39.92v-1.61a3.37,3.37,0,0,1-3.34,1.87c-2.82-.05-3.81-2-3.81-4.17v-5.12H34v4.89c0,2,.87,3.25,2.9,3.24a2.74,2.74,0,0,0,3-3v-5.11H41.1Z"/><path class="cls-1" d="M44.85,141.93H46v1.48a3.08,3.08,0,0,1,2.88-1.73v1.23H48.8c-1.75,0-2.72,1.09-2.72,3.14V151H44.85Z"/><path class="cls-1" d="M60.16,149.92a4.6,4.6,0,0,1-1.35,3.56,5,5,0,0,1-3.42,1.4A4.57,4.57,0,0,1,50.93,152h1.42a3.48,3.48,0,0,0,1.08,1.2,3.47,3.47,0,0,0,5.49-2.94v-1.16a3.91,3.91,0,0,1-3.65,2.17,4.77,4.77,0,0,1,0-9.54,4,4,0,0,1,3.66,2.12v-1.87h1.23Zm-8.36-3.47A3.62,3.62,0,0,0,58,149a3.82,3.82,0,0,0,1-2.55,3.91,3.91,0,0,0-.83-2.37,3.32,3.32,0,0,0-2.75-1.26,3.51,3.51,0,0,0-3.59,3.59Z"/><path class="cls-1" d="M63.9,138.54h1.24v1.73H63.9Zm0,3.39h1.24v9H63.9Z"/><path class="cls-1" d="M78,151H76.72V149.1A4,4,0,0,1,73,151.22a4.77,4.77,0,0,1,0-9.54,4,4,0,0,1,3.69,2.15v-1.9H78Zm-8.39-4.49a3.52,3.52,0,0,0,3.62,3.59,3.38,3.38,0,0,0,3.26-2.2,3.49,3.49,0,0,0,.3-1.43,3.2,3.2,0,0,0-.28-1.44,3.51,3.51,0,0,0-3.31-2.17,3.55,3.55,0,0,0-3.59,3.63Z"/><path class="cls-1" d="M21.12,125.78A2.87,2.87,0,0,1,19.74,123c0-5.79,3.14-9,8.9-9h2.81c.53-4.64,3.06-7.34,7.83-7.92V86.21c-2.71-.75-5.45-1.28-8-2.26C17.69,78.77,9,69.12,5.21,55.11a56.66,56.66,0,0,1-1.1-7A1.92,1.92,0,0,0,3,46.39a5.71,5.71,0,0,1-2.94-6,5.58,5.58,0,0,1,4.86-4.84c2.64-.25,5.31-.17,8-.16.77,0,1.21-.19,1.45-.95a15.32,15.32,0,0,1,.83-1.91,8.3,8.3,0,0,1,7.56-5c2-.09,3.93,0,5.89-.06A2,2,0,0,0,30,26.86a19.72,19.72,0,0,1,12.43-7c.31-.05.78-.51.78-.78.06-3,0-6,0-9.25H41c-2.73,0-3.67-.51-3.65-2s1-1.94,3.71-1.94H43.2c0-1.17,0-2.3,0-3.42C43.22.89,44,0,45.16,0s1.94.93,2,2.48c0,.53,0,1.07,0,1.6V5.87h3.17c1.76,0,2.72.73,2.7,2s-1,1.94-2.75,2h-3v9.61c2.3.79,4.58,1.44,6.74,2.35A15.67,15.67,0,0,1,60,26.48a2.53,2.53,0,0,0,2.3,1,45.09,45.09,0,0,1,6.26.07,7.69,7.69,0,0,1,6.7,5.23c.74,2.09,1.84,2.82,4,2.57a36.32,36.32,0,0,1,5.52,0,5.75,5.75,0,0,1,5.39,4.42,5.54,5.54,0,0,1-2.59,6.33,2.39,2.39,0,0,0-1.33,2.32A37.79,37.79,0,0,1,82,63.9c-6.31,11.85-16,19.19-29.22,21.83l-.6.11-.9.22v20c4.73.56,7.35,3.16,7.9,7.94h3.68c4.89,0,8.89,3.87,7.91,10.18-.09.61-.94,1.1-1.43,1.65ZM82.41,47.12c-1.79,0-3.58,0-5.37,0-1.44,0-2.34-.84-2.33-2s.88-1.91,2.36-1.93h6.39c2,0,3-.64,3-2s-.93-2-2.93-2L7,39.32c-2.07,0-3.09.68-3.06,2s1,1.91,3,1.91c16.3,0,55,0,71.33,0a10.11,10.11,0,0,1,1.35,0c1.31.2,2,1.14,1.66,2.68-.74,1.29-1.89,1.21-3,1.22-15.47,0-53.39,0-68.87,0H8a37.24,37.24,0,0,0,74.39-.06ZM35.56,114c3.15,0,6.22,0,9.28,0,1.51,0,2.35.7,2.38,1.89s-.83,2-2.39,2c-2.13,0-4.26,0-6.38,0-3.57,0-7.13,0-10.69,0-2.41,0-4.11,1.76-3.86,3.85H66.74a3.54,3.54,0,0,0-3.55-3.86c-2.29-.07-4.59,0-6.88,0-1,0-2.05,0-3.07,0a2,2,0,1,1,0-3.9c.56,0,1.13,0,1.69,0a3.61,3.61,0,0,0-3.51-3.9q-6.15-.1-12.29,0C37.1,110.11,35.69,111.68,35.56,114ZM72.08,35.31c-.9-2.77-2.41-3.9-5.14-3.9q-16.81,0-33.63,0c-3.35,0-6.71,0-10.06,0a4.7,4.7,0,0,0-4.86,3.86ZM47.16,86.54H43.37v19.51h3.79Zm8.23-59.1c-6-5.45-15.54-4.75-20.28,0Z"/></g></g></svg>