<svg xmlns="http://www.w3.org/2000/svg" viewBox="0 0 68.13 108.97"><defs><style>.cls-1{fill:#fff;}</style></defs><title>Prédica</title><g id="Capa_2" data-name="Capa 2"><g id="Layer_2" data-name="Layer 2"><path class="cls-1" d="M3.27,96.3c1.75,0,2.57.2,3.34.79a3.79,3.79,0,0,1,1.33,3,3.88,3.88,0,0,1-1.28,3,4.73,4.73,0,0,1-3.27.84h-2v4.88H0V96.3Zm-1.88,6.31h2a3.89,3.89,0,0,0,2.3-.52,2.65,2.65,0,0,0,0-4,3.85,3.85,0,0,0-2.32-.52H1.39Z"/><path class="cls-1" d="M10.69,99.69h1.17v1.48a3.08,3.08,0,0,1,2.89-1.73v1.23h-.12c-1.74,0-2.72,1.09-2.72,3.13v4.92H10.69Z"/><path class="cls-1" d="M17.35,104.56a3.44,3.44,0,0,0,3.52,3.34A3.35,3.35,0,0,0,24,106h1.29a4.84,4.84,0,0,1-1.83,2.2,4.75,4.75,0,0,1-2.57.73,4.66,4.66,0,0,1-4.76-4.75,4.74,4.74,0,1,1,9.46.34Zm7-1a3.52,3.52,0,0,0-7,0Zm-1.58-8,.45.91-4,2.16-.41-.81Z"/><path class="cls-1" d="M37.7,108.72H36.51v-1.86A4,4,0,0,1,32.79,109a4.77,4.77,0,0,1,0-9.53,4,4,0,0,1,3.69,2.08V96.3H37.7Zm-8.36-4.51A3.53,3.53,0,0,0,33,107.82a3.61,3.61,0,0,0,2.57-1.06,3.53,3.53,0,0,0,1-2.6,3.45,3.45,0,0,0-1-2.54,3.62,3.62,0,0,0-6.16,2.57Z"/><path class="cls-1" d="M41.49,96.3h1.24V98H41.49Zm0,3.39h1.24v9H41.49Z"/><path class="cls-1" d="M55.29,105.67a4.8,4.8,0,1,1,0-2.86H54a3.47,3.47,0,0,0-3.27-2.23,3.43,3.43,0,0,0-2.55,1,3.71,3.71,0,0,0-1,2.61,3.52,3.52,0,0,0,3.56,3.61A3.42,3.42,0,0,0,54,105.67Z"/><path class="cls-1" d="M67.47,108.72H66.23v-1.86a4,4,0,0,1-3.7,2.11,4.77,4.77,0,0,1,0-9.53,4,4,0,0,1,3.7,2.15v-1.9h1.24Zm-8.39-4.5a3.53,3.53,0,0,0,3.62,3.6,3.39,3.39,0,0,0,3.26-2.2,3.49,3.49,0,0,0,.3-1.43,3.05,3.05,0,0,0-.29-1.44,3.47,3.47,0,0,0-3.3-2.17,3.54,3.54,0,0,0-3.59,3.63Z"/><path class="cls-1" d="M68.13,80.52V84.2c-.39,0-.73,0-1.06,0q-27.33,0-54.65,0A11.16,11.16,0,0,1,1.07,75.41a13.13,13.13,0,0,1-.29-2.87q0-30.44,0-60.87C.78,6,4.17,1.57,9.49.32A13.14,13.14,0,0,1,12.36,0H68.11V65.54H66.72q-27,0-53.93,0A11.13,11.13,0,0,0,9.53,66,7.49,7.49,0,0,0,11.62,80.5c.48,0,1,0,1.45,0H68.13ZM64.39,3.78c-.39,0-.66,0-.93,0q-25.56,0-51.13,0c-4.73,0-7.81,3.1-7.81,7.89q0,26,0,52.06c0,.28,0,.56.09,1,2.71-2.41,5.76-3,9.08-2.95,16.42.05,32.84,0,49.26,0,.47,0,.94,0,1.45-.06Z"/><path class="cls-1" d="M51.24,33.69H42V54.22H30.8V33.77H21.47V22.52H30.7V11.29H41.92V22.46h9.32Zm-13,16.8V29.93H47.5V26.22H38.19V15.07H34.42V26.28H25.2V30h9.3V50.49Z"/></g></g></svg>